<?xml version="1.0" standalone="no"?>
<!DOCTYPE svg PUBLIC "-//W3C//DTD SVG 1.0//EN" "http://www.w3.org/TR/2001/REC-SVG-20010904/DTD/svg10.dtd">
<svg xmlns="http://www.w3.org/2000/svg" id="body_1" width="64" height="64">

<g transform="matrix(0.25 0 0 0.25 0 0)">
	<g transform="matrix(0.76 0 0 0.76 128 128)">
		<g transform="matrix(3.69 0 0 3.69 -166.05 -166.05)">
            <path transform="matrix(1 0 0 1 0 0)"  d="M86.356 46.27C 86.387 46.205 86.415 46.139 86.441 46.071C 86.483 45.961 86.517 45.849 86.545 45.735C 86.561 45.673 86.578995 45.612 86.590996 45.549C 86.62499 45.368 86.645996 45.185 86.645996 45.001C 86.645996 45.001 86.645996 45.001 86.645996 45.001C 86.645996 44.817 86.62399 44.634 86.590996 44.453C 86.578995 44.389 86.561 44.329 86.545 44.267C 86.516 44.153 86.483 44.040997 86.441 43.931C 86.415 43.863 86.386 43.797 86.355 43.732C 86.309006 43.633 86.256004 43.538 86.199005 43.444C 86.16 43.381 86.122 43.318 86.079 43.258C 86.059006 43.231 86.046005 43.201 86.025 43.174L86.025 43.174L74.316 27.93C 73.307 26.617 71.422005 26.369 70.109 27.379C 68.796 28.388 68.548004 30.272 69.558 31.585999L69.558 31.585999L77.56 42L30.903 42C 29.246 42 27.903 43.343 27.903 45C 27.903 46.657 29.246 48 30.903 48L30.903 48L77.559 48L69.558 58.414C 68.548 59.728 68.795 61.611 70.109 62.621002C 70.654 63.04 71.297005 63.242 71.935 63.242C 72.835 63.242 73.725 62.839 74.315994 62.07L74.315994 62.07L86.02599 46.828C 86.047 46.801 86.061 46.771 86.08099 46.743C 86.12399 46.683 86.160995 46.621 86.2 46.559002C 86.257 46.464 86.31 46.369 86.356 46.27z" stroke="none" fill="#FFFFFF" fill-rule="nonzero" />
            <path transform="matrix(1 0 0 1 0 0)"  d="M60.442 90L9.353 90C 7.6959996 90 6.3529997 88.657 6.3529997 87L6.3529997 87L6.3529997 3C 6.3529997 1.343 7.6959996 0 9.353 0L9.353 0L60.442 0C 62.099003 0 63.442 1.343 63.442 3L63.442 3L63.442 33.054C 63.442 34.711002 62.099003 36.054 60.442 36.054C 58.785 36.054 57.442 34.711002 57.442 33.054L57.442 33.054L57.442 6L12.353 6L12.353 84L57.442 84L57.442 55.61C 57.442 53.953 58.785 52.61 60.442 52.61C 62.099003 52.61 63.442 53.953 63.442 55.61L63.442 55.61L63.442 87C 63.442 88.657 62.1 90 60.442 90z" stroke="none" fill="#FFFFFF" fill-rule="nonzero" />
		</g>
	</g>
</g>
</svg>